<svg xmlns="http://www.w3.org/2000/svg" viewBox="0 0 449 60.86"><defs><style>.cls-1{fill:#55ba5d;}</style></defs><title>Asset 3</title><g id="Layer_2" data-name="Layer 2"><g id="Layer_1-2" data-name="Layer 1"><path class="cls-1" d="M0,7.59V51.12l10.4,5.2V18.19H36.27a1.46,1.46,0,0,1,1.46,1.47v4.26a1.46,1.46,0,0,1-1.46,1.47H10.4l5.1,10.43H28.8l9.68,17.33H51.55L40.67,35h0c4.26-.87,6.34-3.52,7.46-7.47V17.17a9.61,9.61,0,0,0-9.58-9.58Z"/><path class="cls-1" d="M52.13,7.32V42.59A10.67,10.67,0,0,0,62.8,53.26H90.33A10.67,10.67,0,0,0,101,42.59V4.52L90.2,9.92v30.6a2.39,2.39,0,0,1-2.4,2.4h-23a2.39,2.39,0,0,1-2.4-2.4V7.32Z"/><rect class="cls-1" x="157.2" y="7.32" width="10.9" height="45.93"/><path class="cls-1" d="M182.3,7.32a9.7,9.7,0,0,0-9.7,9.7V43.56a9.7,9.7,0,0,0,9.7,9.7H211a9.7,9.7,0,0,0,9.7-9.7V17a9.7,9.7,0,0,0-9.7-9.7Zm25,35.7H185.85a3,3,0,0,1-3-3.05V20.87a3.06,3.06,0,0,1,3-3.05h21.43a3,3,0,0,1,3.05,3.05V40A3,3,0,0,1,207.28,43Z"/><path class="cls-1" d="M276.53,7.32l-4.93,10.5-33.14,0a2.37,2.37,0,0,0-2.38,2.38v2.93a2.38,2.38,0,0,0,2.38,2.39l25.66,0a9.73,9.73,0,0,1,9.73,9.72v8.28a9.73,9.73,0,0,1-9.72,9.73H222.4l5.07-10.44h33.61a2.38,2.38,0,0,0,2.39-2.38V38a2.38,2.38,0,0,0-2.39-2.38H234.82a9.45,9.45,0,0,1-9.44-9.45V17.33a10,10,0,0,1,10-10Z"/><polygon class="cls-1" points="344 0 344 53.26 354.4 53.26 354.4 24.79 392.67 60.86 392.67 7.32 381.73 7.32 381.73 35.52 344 0"/><path class="cls-1" d="M449,7.31H407.47a10.29,10.29,0,0,0-10.28,10.31l.05,25.44a10.3,10.3,0,0,0,10.31,10.27L449,53.25l-5.67-10.6-33.7-.07a2.11,2.11,0,0,1-2.11-2.11V19.55a2.11,2.11,0,0,1,2.12-2.11l33.69.1Z"/><path class="cls-1" d="M342.55,7.22H301a10.29,10.29,0,0,0-10.28,10.31L290.79,43A10.29,10.29,0,0,0,301.1,53.23l41.45-.08-5.67-10.6-33.7-.06a2.11,2.11,0,0,1-2.11-2.11V19.46a2.12,2.12,0,0,1,2.12-2.12l33.69.11Z"/><path class="cls-1" d="M153.33,18A10.63,10.63,0,0,0,142.7,7.32H104.4V53.26h38.3a10.63,10.63,0,0,0,10.63-10.64V36.1a7.84,7.84,0,0,0-1.67-4.85l-.59-.76A7.88,7.88,0,0,0,153.33,25Zm-38.53-.14h25.48a2.45,2.45,0,0,1,2.45,2.45v2.8a2.44,2.44,0,0,1-2.45,2.45H114.8ZM143,40.47a2.45,2.45,0,0,1-2.45,2.45H114.8V26l5.2,9.73h20.55A2.45,2.45,0,0,1,143,38.17Z"/></g></g></svg>